HIERARCHY
ROOT hip
{
	OFFSET 0.000000 0.000000 0.000000 
	CHANNELS 6 Xposition Yposition Zposition Xrotation Zrotation Yrotation
	JOINT abdomen
	{
		OFFSET 0.000000 3.402643 0.000000 
		CHANNELS 3 Xrotation Zrotation Yrotation
		JOINT chest
		{
			OFFSET 0.000000 8.438565 -0.680529 
			CHANNELS 3 Xrotation Zrotation Yrotation
			JOINT neck
			{
				OFFSET 0.000000 10.207942 -0.272212 
				CHANNELS 3 Xrotation Zrotation Yrotation
				JOINT head
				{
					OFFSET 0.000000 3.130431 0.000000 
					CHANNELS 3 Xrotation Zrotation Yrotation
					End Site
					{
						OFFSET 0.000000 3.130435 0.000000 
					}
				}
			}
			JOINT lCollar
			{
				OFFSET 3.470700 6.669187 -0.816635 
				CHANNELS 3 Yrotation Zrotation Xrotation
				JOINT lShldr
				{
					OFFSET 3.198488 0.000000 0.000000 
					CHANNELS 3 Zrotation Yrotation Xrotation
					JOINT lForeArm
					{
						OFFSET 10.139888 0.000000 0.000000 
						CHANNELS 3 Yrotation Zrotation Xrotation
						JOINT lHand
						{
							OFFSET 8.370511 0.000000 0.000000 
							CHANNELS 3 Zrotation Yrotation Xrotation
							End Site
							{
								OFFSET 4.083176 0.000000 0.000000 
							}
						}
					}
				}
			}
			JOINT rCollar
			{
				OFFSET -3.470700 6.669187 -0.816635 
				CHANNELS 3 Yrotation Zrotation Xrotation
				JOINT rShldr
				{
					OFFSET -3.198488 0.000000 0.000000 
					CHANNELS 3 Zrotation Yrotation Xrotation
					JOINT rForeArm
					{
						OFFSET -10.139888 0.000000 0.000000 
						CHANNELS 3 Yrotation Zrotation Xrotation
						JOINT rHand
						{
							OFFSET -8.370511 0.000000 0.000000 
							CHANNELS 3 Zrotation Yrotation Xrotation
							End Site
							{
								OFFSET -4.083176 0.000000 0.000000 
							}
						}
					}
				}
			}
		}
	}
	JOINT lThigh
	{
		OFFSET 5.308129 -1.633274 1.361059 
		CHANNELS 3 Xrotation Zrotation Yrotation
		JOINT lShin
		{
			OFFSET -2.041588 -20.007561 0.000000 
			CHANNELS 3 Xrotation Zrotation Yrotation
			JOINT lFoot
			{
				OFFSET 0.000000 -19.190928 -1.224953 
				CHANNELS 3 Xrotation Yrotation Zrotation
				End Site
				{
					OFFSET 0.000000 -2.449906 4.627600 
				}
			}
		}
	}
	JOINT rThigh
	{
		OFFSET -5.308129 -1.633274 1.361059 
		CHANNELS 3 Xrotation Zrotation Yrotation
		JOINT rShin
		{
			OFFSET 2.041588 -20.007561 0.000000 
			CHANNELS 3 Xrotation Zrotation Yrotation
			JOINT rFoot
			{
				OFFSET 0.000000 -19.190928 -1.224953 
				CHANNELS 3 Xrotation Yrotation Zrotation
				End Site
				{
					OFFSET 0.000000 -2.449906 4.627600 
				}
			}
		}
	}
}
MOTION
Frames: 16
Frame Time: 0.033333
-89.038063 40.665497 4.982079 11.445313 -9.677734 7.322577 55.797729 -0.200014 0.978382 -8.378906 17.080078 13.144531 20.119621 4.601089 0.251196 -0.361328 -4.443359 4.218750 2.000000 -2.000000 0.000000 22.451174 30.234375 -13.198207 -42.674606 11.307348 34.151581 -27.701178 20.421309 -66.470146 -2.000000 2.000000 0.000000 20.273436 -33.808594 55.185543 17.604597 -9.991838 -65.435410 27.830393 -26.854105 -77.739723 10.457066 30.125509 31.120855 -0.358789 -4.630157 -0.191281 32.205116 -2.310512 -20.021799 10.226999 5.758034 2.608079 -0.914894 -1.574512 -1.157866 11.916707 7.297768 33.748871 
-89.321899 40.615067 4.944431 11.992188 -9.960938 7.566670 55.797729 -0.200014 0.978382 -9.169922 17.304689 13.059546 19.857996 5.218688 0.285389 0.058593 -4.433594 3.789063 2.000000 -2.000000 0.000000 22.744141 29.306641 -13.183595 -41.106197 11.834252 30.881437 -26.468891 20.962751 -66.259933 -2.000000 2.000000 0.000000 22.607420 -34.531250 54.853516 17.569485 -9.629049 -67.563995 26.738344 -27.106022 -77.383949 8.989203 30.659670 31.432486 0.304585 -4.770317 -0.270436 32.289013 -2.250954 -20.659870 9.511004 6.523054 2.825098 -0.936680 -1.909719 -1.257431 11.878087 6.783957 33.457359 
-89.480927 40.624660 4.911066 12.216798 -9.697266 7.810854 55.797729 -0.200014 0.978382 -9.482423 16.777346 12.871095 19.853226 5.571214 0.329924 -0.576173 -5.117188 4.658203 2.000000 -2.000000 0.000000 22.470703 28.935547 -12.978518 -39.844120 13.542329 27.591219 -26.131805 21.041351 -66.130013 -2.000000 2.000000 0.000000 24.072268 -34.453129 54.027676 17.501007 -8.556862 -69.050987 25.788733 -27.656034 -76.978722 8.072565 30.309614 31.155731 0.499849 -4.694232 -0.267502 32.470612 -1.104548 -20.671064 9.235784 6.463256 2.849380 -0.955691 -1.976790 -1.285433 11.968377 6.417391 33.347549 
-89.556953 40.689709 4.899896 11.669921 -9.228517 8.027344 55.797729 -0.200014 0.978382 -8.896483 16.162111 12.824984 19.609781 5.520020 0.318855 -0.439453 -4.912109 5.996095 2.000000 -2.000000 0.000000 22.998047 29.287109 -12.832032 -39.507748 13.967723 26.287157 -25.017357 22.164070 -66.238464 -2.000000 2.000000 0.000000 23.994141 -34.550781 53.945309 18.095032 -7.927769 -70.821098 25.044966 -28.046253 -76.656601 7.808376 29.713629 30.733082 1.144270 -4.487359 -0.241960 32.193050 0.751708 -19.825096 9.817564 6.119305 2.737868 -0.994682 -1.889524 -1.249413 12.078679 6.268475 33.355362 
-89.608810 40.744316 4.847040 11.416016 -8.750000 7.928201 55.797729 -0.200014 0.978382 -8.583983 15.556642 12.736995 19.239775 4.681251 0.258832 -1.083985 -4.345703 7.617188 2.000000 -2.000000 0.000000 23.603518 29.453129 -12.905354 -38.683735 13.867438 25.031246 -24.256735 23.326286 -66.501160 -2.000000 2.000000 0.000000 22.568361 -34.443359 54.359715 18.287962 -7.511149 -71.537651 24.312752 -28.114878 -76.466194 6.578414 29.254250 30.357018 3.202697 -4.065999 -0.308165 31.438852 2.015480 -19.845490 10.009404 5.722529 2.594619 -0.907289 -1.792869 -1.191297 12.272636 6.598821 33.687710 
-89.623184 40.737423 4.719003 12.177733 -8.144532 7.558595 55.797729 -0.200014 0.978382 -9.414063 14.677735 12.382813 19.311543 3.391904 0.158145 -0.781250 -3.769531 9.443359 2.000000 -2.000000 0.000000 23.886721 29.462893 -13.100665 -37.570728 13.605874 23.550848 -23.472530 24.371183 -66.690681 -2.000000 2.000000 0.000000 20.000000 -33.955078 54.765625 17.449659 -6.989640 -70.670319 23.684940 -28.186659 -76.349113 3.423451 28.657448 29.794474 6.738621 -3.113793 -0.344610 30.196875 1.641274 -21.886005 8.930138 4.968044 2.395115 -0.546828 -1.676012 -1.156433 12.359412 7.162370 34.534241 
-89.595879 40.706306 4.569843 13.164063 -7.724609 7.195952 55.797729 -0.200014 0.978382 -10.419922 13.759766 11.982422 18.959190 2.103981 0.066935 -1.298829 -4.003906 11.513672 2.000000 -2.000000 0.000000 23.789063 29.843750 -13.360322 -37.007935 13.312101 22.786905 -22.718937 25.075459 -66.726982 -2.000000 2.000000 0.000000 16.416016 -33.105469 55.000000 16.262510 -5.963950 -70.596519 23.245392 -28.302580 -76.189148 -0.538428 28.338663 29.298094 11.331639 -1.872033 -0.417850 28.391085 0.683299 -23.601671 7.644958 4.393847 2.249114 -0.322578 -1.589581 -1.152630 12.452245 7.318710 34.622334 
-89.552673 40.723083 4.487538 13.027345 -7.675782 7.039711 55.797729 -0.200014 0.978382 -10.273438 13.007813 11.816407 18.339298 0.646044 -0.038483 -1.250000 -3.056641 13.876954 2.000000 -2.000000 0.000000 24.667969 30.791016 -13.442267 -37.442356 12.345523 22.824144 -22.002975 25.829992 -66.829750 -2.000000 2.000000 0.000000 11.699218 -32.197266 55.468750 15.249915 -4.581548 -71.562286 25.437460 -28.750504 -76.383965 -3.467141 28.749182 29.267368 16.287273 -0.799741 -0.478759 26.671597 -0.171372 -23.807426 7.918922 4.394120 2.230703 -0.741701 -1.647244 -1.161721 12.685455 6.790728 33.853779 
-89.528793 40.762276 4.484317 12.031675 -7.890896 6.814894 55.797729 -0.200014 0.978382 -9.375000 12.363282 11.828264 18.084663 -1.031633 -0.159980 -2.412109 -3.662109 15.487658 2.000000 -2.000000 0.000000 26.220703 31.650393 -13.324953 -37.658775 11.512267 22.498154 -21.504890 26.306744 -66.902603 -2.000000 2.000000 0.000000 6.308594 -30.751953 56.123047 13.968357 -3.077660 -73.211243 26.989769 -29.555851 -76.370010 -5.159577 29.992222 29.836746 21.150831 -0.322053 -0.700473 25.458328 -1.220904 -24.339018 9.192089 4.850292 2.320882 -1.277713 -1.713774 -1.182372 13.029232 6.435029 33.087917 
-89.473686 40.763817 4.474243 11.474609 -7.939193 6.698140 55.797729 -0.200014 0.978382 -9.052734 11.308594 11.630859 17.851273 -2.848850 -0.289665 -3.125001 -3.925781 18.046877 2.000000 -2.000000 0.000000 26.787109 31.835936 -13.173827 -37.086700 11.922846 22.185930 -21.515924 26.580530 -67.131683 -2.000000 2.000000 0.000000 0.292969 -29.599607 56.894535 14.077470 -2.351683 -77.989357 23.276814 -31.605530 -74.854630 -7.395061 31.027004 30.186186 25.765987 0.062232 -0.883636 24.697094 -2.247590 -25.377241 9.578611 4.745507 2.310888 -0.995752 -1.364787 -1.116534 12.965681 6.300712 33.265045 
-89.349266 40.757057 4.404128 11.523437 -7.802735 7.158204 55.797729 -0.200014 0.978382 -9.345703 9.775391 11.240234 17.476870 -4.306735 -0.394467 -3.261719 -3.642578 19.873047 2.000000 -2.000000 0.000000 27.070313 31.816408 -12.968747 -36.812511 11.984398 22.534252 -21.494486 27.312702 -67.532974 -2.000000 2.000000 0.000000 -6.748047 -29.501953 58.120190 16.865179 -2.691511 -87.005562 16.665012 -34.674583 -72.297699 -10.871050 31.367819 29.891493 30.230431 0.818998 -0.977549 24.055283 -2.867225 -24.665562 9.179332 4.140725 2.139629 -0.465198 -0.899948 -0.975664 12.724090 5.508150 33.320030 
-89.251793 40.782207 4.308300 11.669921 -8.173829 7.773438 55.797729 -0.200014 0.978382 -9.677733 8.486329 10.899878 17.086706 -5.804641 -0.502030 -3.535156 -3.974609 22.119144 2.000000 -2.000000 0.000000 28.007814 32.294926 -12.748688 -37.221107 10.667174 23.356899 -21.027399 28.054144 -67.804214 -2.000000 2.000000 0.000000 -13.730469 -28.720703 59.462891 18.112814 -3.166621 -95.403328 13.784043 -37.584675 -70.378082 -14.765918 32.168491 29.738579 34.675358 1.524274 -1.035758 23.448553 -4.208509 -22.422064 8.742867 4.381722 2.203973 -0.263239 -1.038471 -0.966815 12.468777 3.459008 30.184908 
-89.156349 40.801674 4.217106 11.875000 -8.857422 8.269982 55.797729 -0.200014 0.978382 -10.039063 7.314454 10.577415 16.918491 -7.133961 -0.605015 -4.414063 -4.472656 23.085939 2.000000 -2.000000 0.000000 28.945314 33.066402 -12.533732 -37.817131 8.969919 23.900127 -19.822931 28.466946 -67.686577 -2.000000 2.000000 0.000000 -19.892578 -26.806643 60.269028 16.042593 -3.319421 -100.329140 14.259469 -40.014683 -69.351326 -18.672283 33.213970 29.634279 39.094498 1.998476 -1.171933 22.654367 -6.479050 -21.994776 8.103932 4.969928 2.406155 0.067444 -1.316854 -1.020679 12.085017 0.925653 25.898842 
-88.959534 40.794628 4.165364 11.777344 -9.267578 9.256239 55.797729 -0.200014 0.978382 -10.136719 5.791016 10.244142 16.459621 -8.590152 -0.696929 -4.589845 -4.208984 24.716801 2.000000 -2.000000 0.000000 29.355467 33.232422 -12.275391 -38.081955 7.731149 23.355061 -18.407204 29.062458 -67.496346 -2.000000 2.000000 0.000000 -25.937498 -25.000000 60.874779 13.164905 -3.457230 -102.765381 13.897550 -41.991714 -68.382416 -22.118774 33.565495 29.162630 42.999420 2.193597 -1.335208 21.809023 -8.604689 -22.892908 7.918699 4.950624 2.401534 0.350146 -1.218635 -1.004791 11.902195 -0.401215 25.869114 
-88.701027 40.804050 4.201081 10.878907 -9.736329 10.613584 55.797729 -0.200014 0.978382 -9.443359 4.189453 10.009766 16.122099 -10.049143 -0.805823 -4.989695 -3.193235 26.338264 2.000000 -2.000000 0.000000 28.496096 32.910156 -12.094301 -37.729500 6.775648 20.824610 -17.296778 29.255484 -67.355415 -2.000000 2.000000 0.000000 -31.884768 -23.125000 61.552734 10.877671 -3.607063 -105.367447 11.598359 -43.686535 -67.039124 -24.305990 33.760906 28.826284 46.422871 2.009991 -1.571968 21.447302 -9.549551 -22.598753 9.041486 5.028635 2.416365 0.057824 -1.140904 -1.004413 12.129714 -0.291744 30.083258 
-88.435722 40.791725 4.209972 10.253906 -10.556642 11.855470 55.797729 -0.200014 0.978382 -9.023438 2.744141 9.805155 15.529337 -11.357376 -0.898943 -5.087892 -2.304688 27.890629 2.000000 -2.000000 0.000000 26.562500 32.343754 -11.982423 -36.695480 5.690168 15.955787 -15.220284 29.628159 -66.872375 -2.000000 2.000000 0.000000 -37.187500 -20.937500 61.845703 8.477941 -4.067197 -109.142487 8.263819 -44.203800 -66.214340 -26.844839 34.085564 28.419937 49.856441 1.568049 -1.782602 20.860014 -8.707971 -21.133442 9.555907 5.563949 2.554974 0.106308 -1.305645 -1.019832 12.238567 -0.299819 33.502247 
